<?xml version="1.0" encoding="UTF-8" standalone="no"?><svg xmlns="http://www.w3.org/2000/svg" xmlns:xlink="http://www.w3.org/1999/xlink" contentScriptType="application/ecmascript" contentStyleType="text/css" height="402px" preserveAspectRatio="none" style="width:1103px;height:402px;" version="1.1" viewBox="0 0 1103 402" width="1103.5px" zoomAndPan="magnify"><defs><filter height="300%" id="f17531z7fzgup3" width="300%" x="-1" y="-1"><feGaussianBlur result="blurOut" stdDeviation="1.0"/><feColorMatrix in="blurOut" result="blurOut2" type="matrix" values="0 0 0 0 0 0 0 0 0 0 0 0 0 0 0 0 0 0 .4 0"/><feOffset dx="2.0" dy="2.0" in="blurOut2" result="blurOut3"/><feBlend in="SourceGraphic" in2="blurOut3" mode="normal"/></filter></defs><g><!--MD5=[2b0d53d9c97cd910e03b5cd63281cc53]
cluster calendar_importer::hello.dart--><polygon fill="#FFFFFF" filter="url(#f17531z7fzgup3)" points="8,113.5,113,113.5,116.5,125.3047,118,125.3047,118,170.5,8,170.5,8,113.5" style="stroke:#000000;stroke-width:0.75;"/><line style="stroke:#000000;stroke-width:0.75;" x1="8" x2="116.5" y1="125.3047" y2="125.3047"/><text fill="#000000" font-family="sans-serif" font-size="7" font-weight="bold" lengthAdjust="spacing" textLength="102" x="10" y="121.7666">calendar_importer::hello.dart</text><!--MD5=[1b91236ccc4e258431d00b8b19fdf6ca]
cluster flutter::src::widgets::framework.dart--><polygon fill="#FFFFFF" filter="url(#f17531z7fzgup3)" points="311,23.75,439,23.75,442.5,35.5547,519.5,35.5547,519.5,73.75,311,73.75,311,23.75" style="stroke:#000000;stroke-width:0.75;"/><line style="stroke:#000000;stroke-width:0.75;" x1="311" x2="442.5" y1="35.5547" y2="35.5547"/><text fill="#000000" font-family="sans-serif" font-size="7" font-weight="bold" lengthAdjust="spacing" textLength="125" x="313" y="32.0166">flutter::src::widgets::framework.dart</text><!--MD5=[66c749c0e70e02a226732627f3ca1a74]
cluster calendar_importer::main.dart--><polygon fill="#FFFFFF" filter="url(#f17531z7fzgup3)" points="130,106.5,234,106.5,237.5,118.3047,396,118.3047,396,177.5,130,177.5,130,106.5" style="stroke:#000000;stroke-width:0.75;"/><line style="stroke:#000000;stroke-width:0.75;" x1="130" x2="237.5" y1="118.3047" y2="118.3047"/><text fill="#000000" font-family="sans-serif" font-size="7" font-weight="bold" lengthAdjust="spacing" textLength="101" x="132" y="114.7666">calendar_importer::main.dart</text><!--MD5=[13d130f0718eca428813d6c3d38f3538]
cluster calendar_importer::models::calendarSource.dart--><polygon fill="#FFFFFF" filter="url(#f17531z7fzgup3)" points="531.5,16.75,704,16.75,707.5,28.5547,709,28.5547,709,80.75,531.5,80.75,531.5,16.75" style="stroke:#000000;stroke-width:0.75;"/><line style="stroke:#000000;stroke-width:0.75;" x1="531.5" x2="707.5" y1="28.5547" y2="28.5547"/><text fill="#000000" font-family="sans-serif" font-size="7" font-weight="bold" lengthAdjust="spacing" textLength="169.5" x="533.5" y="25.0166">calendar_importer::models::calendarSource.dart</text><!--MD5=[64f661e9da05a8fa5d172a083bdbfb34]
cluster calendar_importer::models::currentUser.dart--><polygon fill="#FFFFFF" filter="url(#f17531z7fzgup3)" points="363.5,231,523,231,526.5,242.8047,528,242.8047,528,288,363.5,288,363.5,231" style="stroke:#000000;stroke-width:0.75;"/><line style="stroke:#000000;stroke-width:0.75;" x1="363.5" x2="526.5" y1="242.8047" y2="242.8047"/><text fill="#000000" font-family="sans-serif" font-size="7" font-weight="bold" lengthAdjust="spacing" textLength="156.5" x="365.5" y="239.2666">calendar_importer::models::currentUser.dart</text><!--MD5=[8eef6816886ed4e07d8ce52ed26c6ad6]
cluster google_sign_in::google_sign_in.dart--><polygon fill="#FFFFFF" filter="url(#f17531z7fzgup3)" points="431.5,345,562.5,345,566,356.8047,567.5,356.8047,567.5,395,431.5,395,431.5,345" style="stroke:#000000;stroke-width:0.75;"/><line style="stroke:#000000;stroke-width:0.75;" x1="431.5" x2="566" y1="356.8047" y2="356.8047"/><text fill="#000000" font-family="sans-serif" font-size="7" font-weight="bold" lengthAdjust="spacing" textLength="128" x="433.5" y="353.2666">google_sign_in::google_sign_in.dart</text><!--MD5=[5c95c712dc5e5980a1a92e329d89caa2]
cluster calendar_importer::models::EventFetcher.dart--><polygon fill="#FFFFFF" filter="url(#f17531z7fzgup3)" points="620,341.5,785,341.5,788.5,353.3047,790,353.3047,790,398.5,620,398.5,620,341.5" style="stroke:#000000;stroke-width:0.75;"/><line style="stroke:#000000;stroke-width:0.75;" x1="620" x2="788.5" y1="353.3047" y2="353.3047"/><text fill="#000000" font-family="sans-serif" font-size="7" font-weight="bold" lengthAdjust="spacing" textLength="162" x="622" y="349.7666">calendar_importer::models::EventFetcher.dart</text><!--MD5=[53467312b58ca24576b94655e28f7272]
cluster calendar_importer::models::eventImporter.dart--><polygon fill="#FFFFFF" filter="url(#f17531z7fzgup3)" points="721,20.25,888.5,20.25,892,32.0547,893.5,32.0547,893.5,77.25,721,77.25,721,20.25" style="stroke:#000000;stroke-width:0.75;"/><line style="stroke:#000000;stroke-width:0.75;" x1="721" x2="892" y1="32.0547" y2="32.0547"/><text fill="#000000" font-family="sans-serif" font-size="7" font-weight="bold" lengthAdjust="spacing" textLength="164.5" x="723" y="28.5166">calendar_importer::models::eventImporter.dart</text><!--MD5=[5584a53448009d782b820f822395c32d]
cluster calendar_importer::models::remoteEventModel.dart--><polygon fill="#FFFFFF" filter="url(#f17531z7fzgup3)" points="905.5,3,1090,3,1093.5,14.8047,1095,14.8047,1095,94.5,905.5,94.5,905.5,3" style="stroke:#000000;stroke-width:0.75;"/><line style="stroke:#000000;stroke-width:0.75;" x1="905.5" x2="1093.5" y1="14.8047" y2="14.8047"/><text fill="#000000" font-family="sans-serif" font-size="7" font-weight="bold" lengthAdjust="spacing" textLength="181.5" x="907.5" y="11.2666">calendar_importer::models::remoteEventModel.dart</text><!--MD5=[9536bb83a4cb87a4a9072f45800ead46]
cluster calendar_importer::screens::importList.dart--><polygon fill="#FFFFFF" filter="url(#f17531z7fzgup3)" points="540,189.5,695,189.5,698.5,201.3047,867.5,201.3047,867.5,329.5,540,329.5,540,189.5" style="stroke:#000000;stroke-width:0.75;"/><line style="stroke:#000000;stroke-width:0.75;" x1="540" x2="698.5" y1="201.3047" y2="201.3047"/><text fill="#000000" font-family="sans-serif" font-size="7" font-weight="bold" lengthAdjust="spacing" textLength="152" x="542" y="197.7666">calendar_importer::screens::importList.dart</text><!--MD5=[3f5dcf39949d4dbbb046b3a8e8b8fa48]
cluster firebase_auth::firebase_auth.dart--><polygon fill="#FFFFFF" filter="url(#f17531z7fzgup3)" points="802,345,922,345,925.5,356.8047,927,356.8047,927,395,802,395,802,345" style="stroke:#000000;stroke-width:0.75;"/><line style="stroke:#000000;stroke-width:0.75;" x1="802" x2="925.5" y1="356.8047" y2="356.8047"/><text fill="#000000" font-family="sans-serif" font-size="7" font-weight="bold" lengthAdjust="spacing" textLength="117" x="804" y="353.2666">firebase_auth::firebase_auth.dart</text><!--MD5=[641593ceea887db820b54845cd8792ef]
cluster calendar_importer::support::widgetView.dart--><polygon fill="#FFFFFF" filter="url(#f17531z7fzgup3)" points="408,106.5,567,106.5,570.5,118.3047,572,118.3047,572,177.5,408,177.5,408,106.5" style="stroke:#000000;stroke-width:0.75;"/><line style="stroke:#000000;stroke-width:0.75;" x1="408" x2="570.5" y1="118.3047" y2="118.3047"/><text fill="#000000" font-family="sans-serif" font-size="7" font-weight="bold" lengthAdjust="spacing" textLength="156" x="410" y="114.7666">calendar_importer::support::widgetView.dart</text><!--MD5=[2b00a3911e2f7d26bffcec0b42c0d24d]
cluster calendar_importer::support::statelessView.dart--><polygon fill="#FFFFFF" filter="url(#f17531z7fzgup3)" points="584,110,751.5,110,755,121.8047,756.5,121.8047,756.5,174,584,174,584,110" style="stroke:#000000;stroke-width:0.75;"/><line style="stroke:#000000;stroke-width:0.75;" x1="584" x2="755" y1="121.8047" y2="121.8047"/><text fill="#000000" font-family="sans-serif" font-size="7" font-weight="bold" lengthAdjust="spacing" textLength="164.5" x="586" y="118.2666">calendar_importer::support::statelessView.dart</text><!--MD5=[9474fde52c9d03877cf15d879c95b6ee]
class calendar_importer::hello.dart::Hello--><rect codeLine="3" fill="#FEFECE" filter="url(#f17531z7fzgup3)" height="30.918" id="calendar_importer::hello.dart::Hello" style="stroke:#A80036;stroke-width:0.75;" width="46" x="64" y="131.5"/><ellipse cx="78.475" cy="139.5" fill="#ADD1B2" rx="5.5" ry="5.5" style="stroke:#A80036;stroke-width:0.5;"/><path d="M79.475,137.75 Q79.5766,137.5 79.6938,137.375 Q79.8109,137.25 79.9438,137.25 Q80.1781,137.25 80.3266,137.3906 Q80.475,137.5313 80.475,137.8594 L80.475,138.6406 Q80.475,138.9688 80.3344,139.1094 Q80.1938,139.25 79.975,139.25 Q79.7797,139.25 79.6547,139.1641 Q79.5297,139.0781 79.475,138.8516 Q79.4516,138.6953 79.3656,138.6094 Q79.2094,138.4453 78.9281,138.3516 Q78.6469,138.25 78.3656,138.25 Q78.0141,138.25 77.7172,138.3906 Q77.4281,138.5313 77.2016,138.8438 Q76.975,139.1563 76.975,139.5859 L76.975,140.0469 Q76.975,140.5625 77.3969,140.9063 Q77.8188,141.25 78.5688,141.25 Q79.0141,141.25 79.3266,141.1484 Q79.5063,141.0938 79.7094,140.9141 Q79.8422,140.8125 79.9125,140.7813 Q79.9828,140.75 80.0688,140.75 Q80.2328,140.75 80.35,140.8828 Q80.475,141.0078 80.475,141.1875 Q80.475,141.3594 80.3031,141.5625 Q80.0531,141.8594 79.6547,142.0234 Q79.1313,142.25 78.4906,142.25 Q77.7406,142.25 77.1391,141.9531 Q76.6547,141.7188 76.3109,141.2109 Q75.975,140.7031 75.975,140.1016 L75.975,139.5547 Q75.975,138.9297 76.2719,138.3828 Q76.5766,137.8359 77.1,137.5469 Q77.6313,137.25 78.225,137.25 Q78.5844,137.25 78.8969,137.375 Q79.2094,137.5 79.475,137.75 Z " fill="#000000"/><text fill="#000000" font-family="sans-serif" font-size="6" lengthAdjust="spacing" textLength="14.5" x="87.025" y="141.9551">Hello</text><line style="stroke:#A80036;stroke-width:0.75;" x1="64.5" x2="109.5" y1="147.5" y2="147.5"/><line style="stroke:#A80036;stroke-width:0.75;" x1="64.5" x2="109.5" y1="151.5" y2="151.5"/><ellipse cx="69.5" cy="157" fill="#84BE84" rx="1.5" ry="1.5" style="stroke:#038048;stroke-width:0.5;"/><text fill="#000000" font-family="sans-serif" font-size="5.5" lengthAdjust="spacing" textLength="33" x="74" y="159.2095">Widget build()</text><!--MD5=[efc9ff8382eabd0f0b822d1be18a98a9]
class flutter::src::widgets::framework.dart::StatelessWidget--><rect fill="#FEFECE" filter="url(#f17531z7fzgup3)" height="24" id="flutter::src::widgets::framework.dart::StatelessWidget" style="stroke:#A80036;stroke-width:0.75;" width="61" x="319" y="41.75"/><ellipse cx="326.5" cy="49.75" fill="#ADD1B2" rx="5.5" ry="5.5" style="stroke:#A80036;stroke-width:0.5;"/><path d="M327.5,48 Q327.6016,47.75 327.7188,47.625 Q327.8359,47.5 327.9688,47.5 Q328.2031,47.5 328.3516,47.6406 Q328.5,47.7813 328.5,48.1094 L328.5,48.8906 Q328.5,49.2188 328.3594,49.3594 Q328.2188,49.5 328,49.5 Q327.8047,49.5 327.6797,49.4141 Q327.5547,49.3281 327.5,49.1016 Q327.4766,48.9453 327.3906,48.8594 Q327.2344,48.6953 326.9531,48.6016 Q326.6719,48.5 326.3906,48.5 Q326.0391,48.5 325.7422,48.6406 Q325.4531,48.7813 325.2266,49.0938 Q325,49.4063 325,49.8359 L325,50.2969 Q325,50.8125 325.4219,51.1563 Q325.8438,51.5 326.5938,51.5 Q327.0391,51.5 327.3516,51.3984 Q327.5313,51.3438 327.7344,51.1641 Q327.8672,51.0625 327.9375,51.0313 Q328.0078,51 328.0938,51 Q328.2578,51 328.375,51.1328 Q328.5,51.2578 328.5,51.4375 Q328.5,51.6094 328.3281,51.8125 Q328.0781,52.1094 327.6797,52.2734 Q327.1563,52.5 326.5156,52.5 Q325.7656,52.5 325.1641,52.2031 Q324.6797,51.9688 324.3359,51.4609 Q324,50.9531 324,50.3516 L324,49.8047 Q324,49.1797 324.2969,48.6328 Q324.6016,48.0859 325.125,47.7969 Q325.6563,47.5 326.25,47.5 Q326.6094,47.5 326.9219,47.625 Q327.2344,47.75 327.5,48 Z " fill="#000000"/><text fill="#000000" font-family="sans-serif" font-size="6" lengthAdjust="spacing" textLength="45" x="333.5" y="52.2051">StatelessWidget</text><line style="stroke:#A80036;stroke-width:0.75;" x1="319.5" x2="379.5" y1="57.75" y2="57.75"/><line style="stroke:#A80036;stroke-width:0.75;" x1="319.5" x2="379.5" y1="61.75" y2="61.75"/><!--MD5=[aa3f7eeafec522ba9bc8f59b3155082c]
class flutter::src::widgets::framework.dart::StatefulWidget--><rect fill="#FEFECE" filter="url(#f17531z7fzgup3)" height="24" id="flutter::src::widgets::framework.dart::StatefulWidget" style="stroke:#A80036;stroke-width:0.75;" width="55.5" x="397.75" y="41.75"/><ellipse cx="405.25" cy="49.75" fill="#ADD1B2" rx="5.5" ry="5.5" style="stroke:#A80036;stroke-width:0.5;"/><path d="M406.25,48 Q406.3516,47.75 406.4688,47.625 Q406.5859,47.5 406.7188,47.5 Q406.9531,47.5 407.1016,47.6406 Q407.25,47.7813 407.25,48.1094 L407.25,48.8906 Q407.25,49.2188 407.1094,49.3594 Q406.9688,49.5 406.75,49.5 Q406.5547,49.5 406.4297,49.4141 Q406.3047,49.3281 406.25,49.1016 Q406.2266,48.9453 406.1406,48.8594 Q405.9844,48.6953 405.7031,48.6016 Q405.4219,48.5 405.1406,48.5 Q404.7891,48.5 404.4922,48.6406 Q404.2031,48.7813 403.9766,49.0938 Q403.75,49.4063 403.75,49.8359 L403.75,50.2969 Q403.75,50.8125 404.1719,51.1563 Q404.5938,51.5 405.3438,51.5 Q405.7891,51.5 406.1016,51.3984 Q406.2813,51.3438 406.4844,51.1641 Q406.6172,51.0625 406.6875,51.0313 Q406.7578,51 406.8438,51 Q407.0078,51 407.125,51.1328 Q407.25,51.2578 407.25,51.4375 Q407.25,51.6094 407.0781,51.8125 Q406.8281,52.1094 406.4297,52.2734 Q405.9063,52.5 405.2656,52.5 Q404.5156,52.5 403.9141,52.2031 Q403.4297,51.9688 403.0859,51.4609 Q402.75,50.9531 402.75,50.3516 L402.75,49.8047 Q402.75,49.1797 403.0469,48.6328 Q403.3516,48.0859 403.875,47.7969 Q404.4063,47.5 405,47.5 Q405.3594,47.5 405.6719,47.625 Q405.9844,47.75 406.25,48 Z " fill="#000000"/><text fill="#000000" font-family="sans-serif" font-size="6" lengthAdjust="spacing" textLength="39.5" x="412.25" y="52.2051">StatefulWidget</text><line style="stroke:#A80036;stroke-width:0.75;" x1="398.25" x2="452.75" y1="57.75" y2="57.75"/><line style="stroke:#A80036;stroke-width:0.75;" x1="398.25" x2="452.75" y1="61.75" y2="61.75"/><!--MD5=[481250324083d5ec2030fffe1fefaea3]
class flutter::src::widgets::framework.dart::State<T>--><rect fill="#FEFECE" filter="url(#f17531z7fzgup3)" height="24" id="flutter::src::widgets::framework.dart::State&lt;T&gt;" style="stroke:#A80036;stroke-width:0.75;" width="40.5" x="470.75" y="41.75"/><ellipse cx="478.25" cy="49.75" fill="#ADD1B2" rx="5.5" ry="5.5" style="stroke:#A80036;stroke-width:0.5;"/><path d="M479.25,48 Q479.3516,47.75 479.4688,47.625 Q479.5859,47.5 479.7188,47.5 Q479.9531,47.5 480.1016,47.6406 Q480.25,47.7813 480.25,48.1094 L480.25,48.8906 Q480.25,49.2188 480.1094,49.3594 Q479.9688,49.5 479.75,49.5 Q479.5547,49.5 479.4297,49.4141 Q479.3047,49.3281 479.25,49.1016 Q479.2266,48.9453 479.1406,48.8594 Q478.9844,48.6953 478.7031,48.6016 Q478.4219,48.5 478.1406,48.5 Q477.7891,48.5 477.4922,48.6406 Q477.2031,48.7813 476.9766,49.0938 Q476.75,49.4063 476.75,49.8359 L476.75,50.2969 Q476.75,50.8125 477.1719,51.1563 Q477.5938,51.5 478.3438,51.5 Q478.7891,51.5 479.1016,51.3984 Q479.2813,51.3438 479.4844,51.1641 Q479.6172,51.0625 479.6875,51.0313 Q479.7578,51 479.8438,51 Q480.0078,51 480.125,51.1328 Q480.25,51.2578 480.25,51.4375 Q480.25,51.6094 480.0781,51.8125 Q479.8281,52.1094 479.4297,52.2734 Q478.9063,52.5 478.2656,52.5 Q477.5156,52.5 476.9141,52.2031 Q476.4297,51.9688 476.0859,51.4609 Q475.75,50.9531 475.75,50.3516 L475.75,49.8047 Q475.75,49.1797 476.0469,48.6328 Q476.3516,48.0859 476.875,47.7969 Q477.4063,47.5 478,47.5 Q478.3594,47.5 478.6719,47.625 Q478.9844,47.75 479.25,48 Z " fill="#000000"/><text fill="#000000" font-family="sans-serif" font-size="6" lengthAdjust="spacing" textLength="24.5" x="485.25" y="52.2051">State&lt;T&gt;</text><line style="stroke:#A80036;stroke-width:0.75;" x1="471.25" x2="510.75" y1="57.75" y2="57.75"/><line style="stroke:#A80036;stroke-width:0.75;" x1="471.25" x2="510.75" y1="61.75" y2="61.75"/><!--MD5=[51592efe4c2cfbb6116a47155204a223]
class calendar_importer::main.dart::MyApp--><rect codeLine="9" fill="#FEFECE" filter="url(#f17531z7fzgup3)" height="30.918" id="calendar_importer::main.dart::MyApp" style="stroke:#A80036;stroke-width:0.75;" width="46" x="138" y="131.5"/><ellipse cx="151.125" cy="139.5" fill="#ADD1B2" rx="5.5" ry="5.5" style="stroke:#A80036;stroke-width:0.5;"/><path d="M152.125,137.75 Q152.2266,137.5 152.3438,137.375 Q152.4609,137.25 152.5938,137.25 Q152.8281,137.25 152.9766,137.3906 Q153.125,137.5313 153.125,137.8594 L153.125,138.6406 Q153.125,138.9688 152.9844,139.1094 Q152.8438,139.25 152.625,139.25 Q152.4297,139.25 152.3047,139.1641 Q152.1797,139.0781 152.125,138.8516 Q152.1016,138.6953 152.0156,138.6094 Q151.8594,138.4453 151.5781,138.3516 Q151.2969,138.25 151.0156,138.25 Q150.6641,138.25 150.3672,138.3906 Q150.0781,138.5313 149.8516,138.8438 Q149.625,139.1563 149.625,139.5859 L149.625,140.0469 Q149.625,140.5625 150.0469,140.9063 Q150.4688,141.25 151.2188,141.25 Q151.6641,141.25 151.9766,141.1484 Q152.1563,141.0938 152.3594,140.9141 Q152.4922,140.8125 152.5625,140.7813 Q152.6328,140.75 152.7188,140.75 Q152.8828,140.75 153,140.8828 Q153.125,141.0078 153.125,141.1875 Q153.125,141.3594 152.9531,141.5625 Q152.7031,141.8594 152.3047,142.0234 Q151.7813,142.25 151.1406,142.25 Q150.3906,142.25 149.7891,141.9531 Q149.3047,141.7188 148.9609,141.2109 Q148.625,140.7031 148.625,140.1016 L148.625,139.5547 Q148.625,138.9297 148.9219,138.3828 Q149.2266,137.8359 149.75,137.5469 Q150.2813,137.25 150.875,137.25 Q151.2344,137.25 151.5469,137.375 Q151.8594,137.5 152.125,137.75 Z " fill="#000000"/><text fill="#000000" font-family="sans-serif" font-size="6" lengthAdjust="spacing" textLength="17.5" x="159.375" y="141.9551">MyApp</text><line style="stroke:#A80036;stroke-width:0.75;" x1="138.5" x2="183.5" y1="147.5" y2="147.5"/><line style="stroke:#A80036;stroke-width:0.75;" x1="138.5" x2="183.5" y1="151.5" y2="151.5"/><ellipse cx="143.5" cy="157" fill="#84BE84" rx="1.5" ry="1.5" style="stroke:#038048;stroke-width:0.5;"/><text fill="#000000" font-family="sans-serif" font-size="5.5" lengthAdjust="spacing" textLength="33" x="148" y="159.2095">Widget build()</text><!--MD5=[c606d3379a6bdfc14f0a14576ca8d570]
class calendar_importer::main.dart::MyHomePage--><rect codeLine="15" fill="#FEFECE" filter="url(#f17531z7fzgup3)" height="37.8359" id="calendar_importer::main.dart::MyHomePage" style="stroke:#A80036;stroke-width:0.75;" width="94.5" x="201.75" y="128"/><ellipse cx="227.625" cy="136" fill="#ADD1B2" rx="5.5" ry="5.5" style="stroke:#A80036;stroke-width:0.5;"/><path d="M228.625,134.25 Q228.7266,134 228.8438,133.875 Q228.9609,133.75 229.0938,133.75 Q229.3281,133.75 229.4766,133.8906 Q229.625,134.0313 229.625,134.3594 L229.625,135.1406 Q229.625,135.4688 229.4844,135.6094 Q229.3438,135.75 229.125,135.75 Q228.9297,135.75 228.8047,135.6641 Q228.6797,135.5781 228.625,135.3516 Q228.6016,135.1953 228.5156,135.1094 Q228.3594,134.9453 228.0781,134.8516 Q227.7969,134.75 227.5156,134.75 Q227.1641,134.75 226.8672,134.8906 Q226.5781,135.0313 226.3516,135.3438 Q226.125,135.6563 226.125,136.0859 L226.125,136.5469 Q226.125,137.0625 226.5469,137.4063 Q226.9688,137.75 227.7188,137.75 Q228.1641,137.75 228.4766,137.6484 Q228.6563,137.5938 228.8594,137.4141 Q228.9922,137.3125 229.0625,137.2813 Q229.1328,137.25 229.2188,137.25 Q229.3828,137.25 229.5,137.3828 Q229.625,137.5078 229.625,137.6875 Q229.625,137.8594 229.4531,138.0625 Q229.2031,138.3594 228.8047,138.5234 Q228.2813,138.75 227.6406,138.75 Q226.8906,138.75 226.2891,138.4531 Q225.8047,138.2188 225.4609,137.7109 Q225.125,137.2031 225.125,136.6016 L225.125,136.0547 Q225.125,135.4297 225.4219,134.8828 Q225.7266,134.3359 226.25,134.0469 Q226.7813,133.75 227.375,133.75 Q227.7344,133.75 228.0469,133.875 Q228.3594,134 228.625,134.25 Z " fill="#000000"/><text fill="#000000" font-family="sans-serif" font-size="6" lengthAdjust="spacing" textLength="38.5" x="237.875" y="138.4551">MyHomePage</text><line style="stroke:#A80036;stroke-width:0.75;" x1="202.25" x2="295.75" y1="144" y2="144"/><ellipse cx="207.25" cy="149.5" fill="none" rx="1.5" ry="1.5" style="stroke:#038048;stroke-width:0.5;"/><text fill="#000000" font-family="sans-serif" font-size="5.5" lengthAdjust="spacing" textLength="29.5" x="211.75" y="151.7095">dynamic title</text><line style="stroke:#A80036;stroke-width:0.75;" x1="202.25" x2="295.75" y1="154.918" y2="154.918"/><ellipse cx="207.25" cy="160.418" fill="#84BE84" rx="1.5" ry="1.5" style="stroke:#038048;stroke-width:0.5;"/><text fill="#000000" font-family="sans-serif" font-size="5.5" lengthAdjust="spacing" textLength="81.5" x="211.75" y="162.6274">_MyHomePageState createState()</text><!--MD5=[1567521ecb4d6011b5f1c7410b1d78e9]
class calendar_importer::main.dart::_MyHomePageState--><rect codeLine="22" fill="#FEFECE" filter="url(#f17531z7fzgup3)" height="44.7539" id="calendar_importer::main.dart::_MyHomePageState" style="stroke:#A80036;stroke-width:0.75;" width="74" x="314" y="124.5"/><ellipse cx="322.4" cy="132.5" fill="#ADD1B2" rx="5.5" ry="5.5" style="stroke:#A80036;stroke-width:0.5;"/><path d="M323.4,130.75 Q323.5016,130.5 323.6188,130.375 Q323.7359,130.25 323.8688,130.25 Q324.1031,130.25 324.2516,130.3906 Q324.4,130.5313 324.4,130.8594 L324.4,131.6406 Q324.4,131.9688 324.2594,132.1094 Q324.1188,132.25 323.9,132.25 Q323.7047,132.25 323.5797,132.1641 Q323.4547,132.0781 323.4,131.8516 Q323.3766,131.6953 323.2906,131.6094 Q323.1344,131.4453 322.8531,131.3516 Q322.5719,131.25 322.2906,131.25 Q321.9391,131.25 321.6422,131.3906 Q321.3531,131.5313 321.1266,131.8438 Q320.9,132.1563 320.9,132.5859 L320.9,133.0469 Q320.9,133.5625 321.3219,133.9063 Q321.7438,134.25 322.4938,134.25 Q322.9391,134.25 323.2516,134.1484 Q323.4313,134.0938 323.6344,133.9141 Q323.7672,133.8125 323.8375,133.7813 Q323.9078,133.75 323.9938,133.75 Q324.1578,133.75 324.275,133.8828 Q324.4,134.0078 324.4,134.1875 Q324.4,134.3594 324.2281,134.5625 Q323.9781,134.8594 323.5797,135.0234 Q323.0563,135.25 322.4156,135.25 Q321.6656,135.25 321.0641,134.9531 Q320.5797,134.7188 320.2359,134.2109 Q319.9,133.7031 319.9,133.1016 L319.9,132.5547 Q319.9,131.9297 320.1969,131.3828 Q320.5016,130.8359 321.025,130.5469 Q321.5563,130.25 322.15,130.25 Q322.5094,130.25 322.8219,130.375 Q323.1344,130.5 323.4,130.75 Z " fill="#000000"/><text fill="#000000" font-family="sans-serif" font-size="6" lengthAdjust="spacing" textLength="56" x="329.6" y="134.9551">_MyHomePageState</text><line style="stroke:#A80036;stroke-width:0.75;" x1="314.5" x2="387.5" y1="140.5" y2="140.5"/><rect fill="none" height="3" style="stroke:#C82930;stroke-width:0.5;" width="3" x="318" y="144.5"/><text fill="#000000" font-family="sans-serif" font-size="5.5" lengthAdjust="spacing" textLength="28.5" x="324" y="148.2095">int _counter</text><line style="stroke:#A80036;stroke-width:0.75;" x1="314.5" x2="387.5" y1="151.418" y2="151.418"/><rect fill="#F24D5C" height="3" style="stroke:#C82930;stroke-width:0.5;" width="3" x="318" y="155.418"/><text fill="#000000" font-family="sans-serif" font-size="5.5" lengthAdjust="spacing" textLength="61" x="324" y="159.1274">void _incrementCounter()</text><ellipse cx="319.5" cy="163.8359" fill="#84BE84" rx="1.5" ry="1.5" style="stroke:#038048;stroke-width:0.5;"/><text fill="#000000" font-family="sans-serif" font-size="5.5" lengthAdjust="spacing" textLength="33" x="324" y="166.0454">Widget build()</text><!--MD5=[3bd6de0e11b9afa310884d37fba105b6]
class calendar_importer::models::calendarSource.dart::CalendarSource--><rect codeLine="30" fill="#FEFECE" filter="url(#f17531z7fzgup3)" height="37.8359" id="calendar_importer::models::calendarSource.dart::CalendarSource" style="stroke:#A80036;stroke-width:0.75;" width="61" x="589.5" y="34.75"/><ellipse cx="597" cy="42.75" fill="#ADD1B2" rx="5.5" ry="5.5" style="stroke:#A80036;stroke-width:0.5;"/><path d="M598,41 Q598.1016,40.75 598.2188,40.625 Q598.3359,40.5 598.4688,40.5 Q598.7031,40.5 598.8516,40.6406 Q599,40.7813 599,41.1094 L599,41.8906 Q599,42.2188 598.8594,42.3594 Q598.7188,42.5 598.5,42.5 Q598.3047,42.5 598.1797,42.4141 Q598.0547,42.3281 598,42.1016 Q597.9766,41.9453 597.8906,41.8594 Q597.7344,41.6953 597.4531,41.6016 Q597.1719,41.5 596.8906,41.5 Q596.5391,41.5 596.2422,41.6406 Q595.9531,41.7813 595.7266,42.0938 Q595.5,42.4063 595.5,42.8359 L595.5,43.2969 Q595.5,43.8125 595.9219,44.1563 Q596.3438,44.5 597.0938,44.5 Q597.5391,44.5 597.8516,44.3984 Q598.0313,44.3438 598.2344,44.1641 Q598.3672,44.0625 598.4375,44.0313 Q598.5078,44 598.5938,44 Q598.7578,44 598.875,44.1328 Q599,44.2578 599,44.4375 Q599,44.6094 598.8281,44.8125 Q598.5781,45.1094 598.1797,45.2734 Q597.6563,45.5 597.0156,45.5 Q596.2656,45.5 595.6641,45.2031 Q595.1797,44.9688 594.8359,44.4609 Q594.5,43.9531 594.5,43.3516 L594.5,42.8047 Q594.5,42.1797 594.7969,41.6328 Q595.1016,41.0859 595.625,40.7969 Q596.1563,40.5 596.75,40.5 Q597.1094,40.5 597.4219,40.625 Q597.7344,40.75 598,41 Z " fill="#000000"/><text fill="#000000" font-family="sans-serif" font-size="6" lengthAdjust="spacing" textLength="45" x="604" y="45.2051">CalendarSource</text><line style="stroke:#A80036;stroke-width:0.75;" x1="590" x2="650" y1="50.75" y2="50.75"/><ellipse cx="595" cy="56.25" fill="none" rx="1.5" ry="1.5" style="stroke:#038048;stroke-width:0.5;"/><text fill="#000000" font-family="sans-serif" font-size="5.5" lengthAdjust="spacing" textLength="21.5" x="599.5" y="58.4595">String url</text><ellipse cx="595" cy="63.168" fill="none" rx="1.5" ry="1.5" style="stroke:#038048;stroke-width:0.5;"/><text fill="#000000" font-family="sans-serif" font-size="5.5" lengthAdjust="spacing" textLength="28.5" x="599.5" y="65.3774">String name</text><line style="stroke:#A80036;stroke-width:0.75;" x1="590" x2="650" y1="68.5859" y2="68.5859"/><!--MD5=[6987aa41565535ee0032f5ef7060e98d]
class calendar_importer::models::currentUser.dart::CurrentUser--><rect codeLine="35" fill="#FEFECE" filter="url(#f17531z7fzgup3)" height="30.918" id="calendar_importer::models::currentUser.dart::CurrentUser" style="stroke:#A80036;stroke-width:0.75;" width="121.5" x="398.25" y="249"/><ellipse cx="439.875" cy="257" fill="#ADD1B2" rx="5.5" ry="5.5" style="stroke:#A80036;stroke-width:0.5;"/><path d="M440.875,255.25 Q440.9766,255 441.0938,254.875 Q441.2109,254.75 441.3438,254.75 Q441.5781,254.75 441.7266,254.8906 Q441.875,255.0313 441.875,255.3594 L441.875,256.1406 Q441.875,256.4688 441.7344,256.6094 Q441.5938,256.75 441.375,256.75 Q441.1797,256.75 441.0547,256.6641 Q440.9297,256.5781 440.875,256.3516 Q440.8516,256.1953 440.7656,256.1094 Q440.6094,255.9453 440.3281,255.8516 Q440.0469,255.75 439.7656,255.75 Q439.4141,255.75 439.1172,255.8906 Q438.8281,256.0313 438.6016,256.3438 Q438.375,256.6563 438.375,257.0859 L438.375,257.5469 Q438.375,258.0625 438.7969,258.4063 Q439.2188,258.75 439.9688,258.75 Q440.4141,258.75 440.7266,258.6484 Q440.9063,258.5938 441.1094,258.4141 Q441.2422,258.3125 441.3125,258.2813 Q441.3828,258.25 441.4688,258.25 Q441.6328,258.25 441.75,258.3828 Q441.875,258.5078 441.875,258.6875 Q441.875,258.8594 441.7031,259.0625 Q441.4531,259.3594 441.0547,259.5234 Q440.5313,259.75 439.8906,259.75 Q439.1406,259.75 438.5391,259.4531 Q438.0547,259.2188 437.7109,258.7109 Q437.375,258.2031 437.375,257.6016 L437.375,257.0547 Q437.375,256.4297 437.6719,255.8828 Q437.9766,255.3359 438.5,255.0469 Q439.0313,254.75 439.625,254.75 Q439.9844,254.75 440.2969,254.875 Q440.6094,255 440.875,255.25 Z " fill="#000000"/><text fill="#000000" font-family="sans-serif" font-size="6" lengthAdjust="spacing" textLength="34" x="450.125" y="259.4551">CurrentUser</text><line style="stroke:#A80036;stroke-width:0.75;" x1="398.75" x2="519.25" y1="265" y2="265"/><ellipse cx="403.75" cy="270.5" fill="none" rx="1.5" ry="1.5" style="stroke:#038048;stroke-width:0.5;"/><text fill="#000000" font-family="sans-serif" font-size="5.5" lengthAdjust="spacing" text-decoration="underline" textLength="108.5" x="408.25" y="272.7095">GoogleSignInAccount currentGoogleAccount</text><line style="stroke:#A80036;stroke-width:0.75;" x1="398.75" x2="519.25" y1="275.918" y2="275.918"/><!--MD5=[071a667d61e6bc648a22c33dfba15e98]
class google_sign_in::google_sign_in.dart::GoogleSignInAccount--><rect fill="#FEFECE" filter="url(#f17531z7fzgup3)" height="24" id="google_sign_in::google_sign_in.dart::GoogleSignInAccount" style="stroke:#A80036;stroke-width:0.75;" width="75" x="462" y="363"/><ellipse cx="469.5" cy="371" fill="#ADD1B2" rx="5.5" ry="5.5" style="stroke:#A80036;stroke-width:0.5;"/><path d="M470.5,369.25 Q470.6016,369 470.7188,368.875 Q470.8359,368.75 470.9688,368.75 Q471.2031,368.75 471.3516,368.8906 Q471.5,369.0313 471.5,369.3594 L471.5,370.1406 Q471.5,370.4688 471.3594,370.6094 Q471.2188,370.75 471,370.75 Q470.8047,370.75 470.6797,370.6641 Q470.5547,370.5781 470.5,370.3516 Q470.4766,370.1953 470.3906,370.1094 Q470.2344,369.9453 469.9531,369.8516 Q469.6719,369.75 469.3906,369.75 Q469.0391,369.75 468.7422,369.8906 Q468.4531,370.0313 468.2266,370.3438 Q468,370.6563 468,371.0859 L468,371.5469 Q468,372.0625 468.4219,372.4063 Q468.8438,372.75 469.5938,372.75 Q470.0391,372.75 470.3516,372.6484 Q470.5313,372.5938 470.7344,372.4141 Q470.8672,372.3125 470.9375,372.2813 Q471.0078,372.25 471.0938,372.25 Q471.2578,372.25 471.375,372.3828 Q471.5,372.5078 471.5,372.6875 Q471.5,372.8594 471.3281,373.0625 Q471.0781,373.3594 470.6797,373.5234 Q470.1563,373.75 469.5156,373.75 Q468.7656,373.75 468.1641,373.4531 Q467.6797,373.2188 467.3359,372.7109 Q467,372.2031 467,371.6016 L467,371.0547 Q467,370.4297 467.2969,369.8828 Q467.6016,369.3359 468.125,369.0469 Q468.6563,368.75 469.25,368.75 Q469.6094,368.75 469.9219,368.875 Q470.2344,369 470.5,369.25 Z " fill="#000000"/><text fill="#000000" font-family="sans-serif" font-size="6" lengthAdjust="spacing" textLength="59" x="476.5" y="373.4551">GoogleSignInAccount</text><line style="stroke:#A80036;stroke-width:0.75;" x1="462.5" x2="536.5" y1="379" y2="379"/><line style="stroke:#A80036;stroke-width:0.75;" x1="462.5" x2="536.5" y1="383" y2="383"/><!--MD5=[f74970c18983c4f7baf2622c16dff0d6]
class calendar_importer::models::EventFetcher.dart::EventFetcher--><rect codeLine="41" fill="#FEFECE" filter="url(#f17531z7fzgup3)" height="30.918" id="calendar_importer::models::EventFetcher.dart::EventFetcher" style="stroke:#A80036;stroke-width:0.75;" width="57.5" x="724.25" y="359.5"/><ellipse cx="734.45" cy="367.5" fill="#ADD1B2" rx="5.5" ry="5.5" style="stroke:#A80036;stroke-width:0.5;"/><path d="M735.45,365.75 Q735.5516,365.5 735.6688,365.375 Q735.7859,365.25 735.9188,365.25 Q736.1531,365.25 736.3016,365.3906 Q736.45,365.5313 736.45,365.8594 L736.45,366.6406 Q736.45,366.9688 736.3094,367.1094 Q736.1688,367.25 735.95,367.25 Q735.7547,367.25 735.6297,367.1641 Q735.5047,367.0781 735.45,366.8516 Q735.4266,366.6953 735.3406,366.6094 Q735.1844,366.4453 734.9031,366.3516 Q734.6219,366.25 734.3406,366.25 Q733.9891,366.25 733.6922,366.3906 Q733.4031,366.5313 733.1766,366.8438 Q732.95,367.1563 732.95,367.5859 L732.95,368.0469 Q732.95,368.5625 733.3719,368.9063 Q733.7938,369.25 734.5438,369.25 Q734.9891,369.25 735.3016,369.1484 Q735.4813,369.0938 735.6844,368.9141 Q735.8172,368.8125 735.8875,368.7813 Q735.9578,368.75 736.0438,368.75 Q736.2078,368.75 736.325,368.8828 Q736.45,369.0078 736.45,369.1875 Q736.45,369.3594 736.2781,369.5625 Q736.0281,369.8594 735.6297,370.0234 Q735.1063,370.25 734.4656,370.25 Q733.7156,370.25 733.1141,369.9531 Q732.6297,369.7188 732.2859,369.2109 Q731.95,368.7031 731.95,368.1016 L731.95,367.5547 Q731.95,366.9297 732.2469,366.3828 Q732.5516,365.8359 733.075,365.5469 Q733.6063,365.25 734.2,365.25 Q734.5594,365.25 734.8719,365.375 Q735.1844,365.5 735.45,365.75 Z " fill="#000000"/><text fill="#000000" font-family="sans-serif" font-size="6" lengthAdjust="spacing" textLength="35.5" x="742.05" y="369.9551">EventFetcher</text><line style="stroke:#A80036;stroke-width:0.75;" x1="724.75" x2="781.25" y1="375.5" y2="375.5"/><line style="stroke:#A80036;stroke-width:0.75;" x1="724.75" x2="781.25" y1="379.5" y2="379.5"/><ellipse cx="729.75" cy="385" fill="#84BE84" rx="1.5" ry="1.5" style="stroke:#038048;stroke-width:0.5;"/><text fill="#000000" font-family="sans-serif" font-size="5.5" lengthAdjust="spacing" textLength="44.5" x="734.25" y="387.2095">void fetchEvents()</text><!--MD5=[7d5d80f30f5e01e8156d780e3a272bb1]
class calendar_importer::models::eventImporter.dart::EventImporter--><rect codeLine="45" fill="#FEFECE" filter="url(#f17531z7fzgup3)" height="30.918" id="calendar_importer::models::eventImporter.dart::EventImporter" style="stroke:#A80036;stroke-width:0.75;" width="56.5" x="778.75" y="38.25"/><ellipse cx="787.375" cy="46.25" fill="#ADD1B2" rx="5.5" ry="5.5" style="stroke:#A80036;stroke-width:0.5;"/><path d="M788.375,44.5 Q788.4766,44.25 788.5938,44.125 Q788.7109,44 788.8438,44 Q789.0781,44 789.2266,44.1406 Q789.375,44.2813 789.375,44.6094 L789.375,45.3906 Q789.375,45.7188 789.2344,45.8594 Q789.0938,46 788.875,46 Q788.6797,46 788.5547,45.9141 Q788.4297,45.8281 788.375,45.6016 Q788.3516,45.4453 788.2656,45.3594 Q788.1094,45.1953 787.8281,45.1016 Q787.5469,45 787.2656,45 Q786.9141,45 786.6172,45.1406 Q786.3281,45.2813 786.1016,45.5938 Q785.875,45.9063 785.875,46.3359 L785.875,46.7969 Q785.875,47.3125 786.2969,47.6563 Q786.7188,48 787.4688,48 Q787.9141,48 788.2266,47.8984 Q788.4063,47.8438 788.6094,47.6641 Q788.7422,47.5625 788.8125,47.5313 Q788.8828,47.5 788.9688,47.5 Q789.1328,47.5 789.25,47.6328 Q789.375,47.7578 789.375,47.9375 Q789.375,48.1094 789.2031,48.3125 Q788.9531,48.6094 788.5547,48.7734 Q788.0313,49 787.3906,49 Q786.6406,49 786.0391,48.7031 Q785.5547,48.4688 785.2109,47.9609 Q784.875,47.4531 784.875,46.8516 L784.875,46.3047 Q784.875,45.6797 785.1719,45.1328 Q785.4766,44.5859 786,44.2969 Q786.5313,44 787.125,44 Q787.4844,44 787.7969,44.125 Q788.1094,44.25 788.375,44.5 Z " fill="#000000"/><text fill="#000000" font-family="sans-serif" font-size="6" lengthAdjust="spacing" textLength="38" x="794.625" y="48.7051">EventImporter</text><line style="stroke:#A80036;stroke-width:0.75;" x1="779.25" x2="834.75" y1="54.25" y2="54.25"/><line style="stroke:#A80036;stroke-width:0.75;" x1="779.25" x2="834.75" y1="58.25" y2="58.25"/><ellipse cx="784.25" cy="63.75" fill="#84BE84" rx="1.5" ry="1.5" style="stroke:#038048;stroke-width:0.5;"/><text fill="#000000" font-family="sans-serif" font-size="5.5" lengthAdjust="spacing" text-decoration="underline" textLength="43.5" x="788.75" y="65.9595">void importEvent()</text><!--MD5=[74193641aa9d6b9234dc4b2e585648bc]
class calendar_importer::models::remoteEventModel.dart::RemoteEventModel--><rect codeLine="49" fill="#FEFECE" filter="url(#f17531z7fzgup3)" height="65.5078" id="calendar_importer::models::remoteEventModel.dart::RemoteEventModel" style="stroke:#A80036;stroke-width:0.75;" width="69.5" x="965.25" y="21"/><ellipse cx="972.75" cy="29" fill="#ADD1B2" rx="5.5" ry="5.5" style="stroke:#A80036;stroke-width:0.5;"/><path d="M973.75,27.25 Q973.8516,27 973.9688,26.875 Q974.0859,26.75 974.2188,26.75 Q974.4531,26.75 974.6016,26.8906 Q974.75,27.0313 974.75,27.3594 L974.75,28.1406 Q974.75,28.4688 974.6094,28.6094 Q974.4688,28.75 974.25,28.75 Q974.0547,28.75 973.9297,28.6641 Q973.8047,28.5781 973.75,28.3516 Q973.7266,28.1953 973.6406,28.1094 Q973.4844,27.9453 973.2031,27.8516 Q972.9219,27.75 972.6406,27.75 Q972.2891,27.75 971.9922,27.8906 Q971.7031,28.0313 971.4766,28.3438 Q971.25,28.6563 971.25,29.0859 L971.25,29.5469 Q971.25,30.0625 971.6719,30.4063 Q972.0938,30.75 972.8438,30.75 Q973.2891,30.75 973.6016,30.6484 Q973.7813,30.5938 973.9844,30.4141 Q974.1172,30.3125 974.1875,30.2813 Q974.2578,30.25 974.3438,30.25 Q974.5078,30.25 974.625,30.3828 Q974.75,30.5078 974.75,30.6875 Q974.75,30.8594 974.5781,31.0625 Q974.3281,31.3594 973.9297,31.5234 Q973.4063,31.75 972.7656,31.75 Q972.0156,31.75 971.4141,31.4531 Q970.9297,31.2188 970.5859,30.7109 Q970.25,30.2031 970.25,29.6016 L970.25,29.0547 Q970.25,28.4297 970.5469,27.8828 Q970.8516,27.3359 971.375,27.0469 Q971.9063,26.75 972.5,26.75 Q972.8594,26.75 973.1719,26.875 Q973.4844,27 973.75,27.25 Z " fill="#000000"/><text fill="#000000" font-family="sans-serif" font-size="6" lengthAdjust="spacing" textLength="53.5" x="979.75" y="31.4551">RemoteEventModel</text><line style="stroke:#A80036;stroke-width:0.75;" x1="965.75" x2="1034.25" y1="37" y2="37"/><ellipse cx="970.75" cy="42.5" fill="none" rx="1.5" ry="1.5" style="stroke:#038048;stroke-width:0.5;"/><text fill="#000000" font-family="sans-serif" font-size="5.5" lengthAdjust="spacing" textLength="23.5" x="975.25" y="44.7095">String title</text><ellipse cx="970.75" cy="49.418" fill="none" rx="1.5" ry="1.5" style="stroke:#038048;stroke-width:0.5;"/><text fill="#000000" font-family="sans-serif" font-size="5.5" lengthAdjust="spacing" textLength="42" x="975.25" y="51.6274">String description</text><ellipse cx="970.75" cy="56.3359" fill="none" rx="1.5" ry="1.5" style="stroke:#038048;stroke-width:0.5;"/><text fill="#000000" font-family="sans-serif" font-size="5.5" lengthAdjust="spacing" textLength="48" x="975.25" y="58.5454">DateTime eventDate</text><ellipse cx="970.75" cy="63.2539" fill="none" rx="1.5" ry="1.5" style="stroke:#038048;stroke-width:0.5;"/><text fill="#000000" font-family="sans-serif" font-size="5.5" lengthAdjust="spacing" textLength="26.5" x="975.25" y="65.4634">String user</text><line style="stroke:#A80036;stroke-width:0.75;" x1="965.75" x2="1034.25" y1="68.6719" y2="68.6719"/><ellipse cx="970.75" cy="74.1719" fill="#84BE84" rx="1.5" ry="1.5" style="stroke:#038048;stroke-width:0.5;"/><text fill="#000000" font-family="sans-serif" font-size="5.5" lengthAdjust="spacing" textLength="30" x="975.25" y="76.3813">Map toMap()</text><ellipse cx="970.75" cy="81.0898" fill="#84BE84" rx="1.5" ry="1.5" style="stroke:#038048;stroke-width:0.5;"/><text fill="#000000" font-family="sans-serif" font-size="5.5" lengthAdjust="spacing" textLength="38" x="975.25" y="83.2993">String toString()</text><!--MD5=[7073d24262803bc6a3dbace6fd863187]
class calendar_importer::screens::importList.dart::ImportList--><rect codeLine="58" fill="#FEFECE" filter="url(#f17531z7fzgup3)" height="37.8359" id="calendar_importer::screens::importList.dart::ImportList" style="stroke:#A80036;stroke-width:0.75;" width="95.5" x="645.25" y="245.5"/><ellipse cx="677.125" cy="253.5" fill="#ADD1B2" rx="5.5" ry="5.5" style="stroke:#A80036;stroke-width:0.5;"/><path d="M678.125,251.75 Q678.2266,251.5 678.3438,251.375 Q678.4609,251.25 678.5938,251.25 Q678.8281,251.25 678.9766,251.3906 Q679.125,251.5313 679.125,251.8594 L679.125,252.6406 Q679.125,252.9688 678.9844,253.1094 Q678.8438,253.25 678.625,253.25 Q678.4297,253.25 678.3047,253.1641 Q678.1797,253.0781 678.125,252.8516 Q678.1016,252.6953 678.0156,252.6094 Q677.8594,252.4453 677.5781,252.3516 Q677.2969,252.25 677.0156,252.25 Q676.6641,252.25 676.3672,252.3906 Q676.0781,252.5313 675.8516,252.8438 Q675.625,253.1563 675.625,253.5859 L675.625,254.0469 Q675.625,254.5625 676.0469,254.9063 Q676.4688,255.25 677.2188,255.25 Q677.6641,255.25 677.9766,255.1484 Q678.1563,255.0938 678.3594,254.9141 Q678.4922,254.8125 678.5625,254.7813 Q678.6328,254.75 678.7188,254.75 Q678.8828,254.75 679,254.8828 Q679.125,255.0078 679.125,255.1875 Q679.125,255.3594 678.9531,255.5625 Q678.7031,255.8594 678.3047,256.0234 Q677.7813,256.25 677.1406,256.25 Q676.3906,256.25 675.7891,255.9531 Q675.3047,255.7188 674.9609,255.2109 Q674.625,254.7031 674.625,254.1016 L674.625,253.5547 Q674.625,252.9297 674.9219,252.3828 Q675.2266,251.8359 675.75,251.5469 Q676.2813,251.25 676.875,251.25 Q677.2344,251.25 677.5469,251.375 Q677.8594,251.5 678.125,251.75 Z " fill="#000000"/><text fill="#000000" font-family="sans-serif" font-size="6" lengthAdjust="spacing" textLength="27.5" x="687.375" y="255.9551">ImportList</text><line style="stroke:#A80036;stroke-width:0.75;" x1="645.75" x2="740.25" y1="261.5" y2="261.5"/><ellipse cx="650.75" cy="267" fill="none" rx="1.5" ry="1.5" style="stroke:#038048;stroke-width:0.5;"/><text fill="#000000" font-family="sans-serif" font-size="5.5" lengthAdjust="spacing" textLength="46.5" x="655.25" y="269.2095">dynamic calendarId</text><line style="stroke:#A80036;stroke-width:0.75;" x1="645.75" x2="740.25" y1="272.418" y2="272.418"/><ellipse cx="650.75" cy="277.918" fill="#84BE84" rx="1.5" ry="1.5" style="stroke:#038048;stroke-width:0.5;"/><text fill="#000000" font-family="sans-serif" font-size="5.5" lengthAdjust="spacing" textLength="82.5" x="655.25" y="280.1274">_ImportListController createState()</text><!--MD5=[09c569455e02181d82582a9d23d267e7]
class calendar_importer::screens::importList.dart::_ImportListController--><rect codeLine="65" fill="#FEFECE" filter="url(#f17531z7fzgup3)" height="113.9336" id="calendar_importer::screens::importList.dart::_ImportListController" style="stroke:#A80036;stroke-width:0.75;" width="101" x="758.5" y="207.5"/><ellipse cx="778.15" cy="215.5" fill="#ADD1B2" rx="5.5" ry="5.5" style="stroke:#A80036;stroke-width:0.5;"/><path d="M779.15,213.75 Q779.2516,213.5 779.3688,213.375 Q779.4859,213.25 779.6188,213.25 Q779.8531,213.25 780.0016,213.3906 Q780.15,213.5313 780.15,213.8594 L780.15,214.6406 Q780.15,214.9688 780.0094,215.1094 Q779.8688,215.25 779.65,215.25 Q779.4547,215.25 779.3297,215.1641 Q779.2047,215.0781 779.15,214.8516 Q779.1266,214.6953 779.0406,214.6094 Q778.8844,214.4453 778.6031,214.3516 Q778.3219,214.25 778.0406,214.25 Q777.6891,214.25 777.3922,214.3906 Q777.1031,214.5313 776.8766,214.8438 Q776.65,215.1563 776.65,215.5859 L776.65,216.0469 Q776.65,216.5625 777.0719,216.9063 Q777.4938,217.25 778.2438,217.25 Q778.6891,217.25 779.0016,217.1484 Q779.1813,217.0938 779.3844,216.9141 Q779.5172,216.8125 779.5875,216.7813 Q779.6578,216.75 779.7438,216.75 Q779.9078,216.75 780.025,216.8828 Q780.15,217.0078 780.15,217.1875 Q780.15,217.3594 779.9781,217.5625 Q779.7281,217.8594 779.3297,218.0234 Q778.8063,218.25 778.1656,218.25 Q777.4156,218.25 776.8141,217.9531 Q776.3297,217.7188 775.9859,217.2109 Q775.65,216.7031 775.65,216.1016 L775.65,215.5547 Q775.65,214.9297 775.9469,214.3828 Q776.2516,213.8359 776.775,213.5469 Q777.3063,213.25 777.9,213.25 Q778.2594,213.25 778.5719,213.375 Q778.8844,213.5 779.15,213.75 Z " fill="#000000"/><text fill="#000000" font-family="sans-serif" font-size="6" lengthAdjust="spacing" textLength="58" x="787.85" y="217.9551">_ImportListController</text><line style="stroke:#A80036;stroke-width:0.75;" x1="759" x2="859" y1="223.5" y2="223.5"/><ellipse cx="764" cy="229" fill="none" rx="1.5" ry="1.5" style="stroke:#038048;stroke-width:0.5;"/><text fill="#000000" font-family="sans-serif" font-size="5.5" lengthAdjust="spacing" textLength="46.5" x="768.5" y="231.2095">dynamic calendarId</text><ellipse cx="764" cy="235.918" fill="none" rx="1.5" ry="1.5" style="stroke:#038048;stroke-width:0.5;"/><text fill="#000000" font-family="sans-serif" font-size="5.5" lengthAdjust="spacing" textLength="88" x="768.5" y="238.1274">List&lt;CalendarSource&gt; listOfSources</text><rect fill="none" height="3" style="stroke:#C82930;stroke-width:0.5;" width="3" x="762.5" y="241.3359"/><text fill="#000000" font-family="sans-serif" font-size="5.5" lengthAdjust="spacing" textLength="85.5" x="768.5" y="245.0454">GoogleSignInAccount _currentUser</text><rect fill="none" height="3" style="stroke:#C82930;stroke-width:0.5;" width="3" x="762.5" y="248.2539"/><text fill="#000000" font-family="sans-serif" font-size="5.5" lengthAdjust="spacing" textLength="68.5" x="768.5" y="251.9634">FirebaseAuth _firebaseAuth</text><rect fill="none" height="3" style="stroke:#C82930;stroke-width:0.5;" width="3" x="762.5" y="255.1719"/><text fill="#000000" font-family="sans-serif" font-size="5.5" lengthAdjust="spacing" textLength="68.5" x="768.5" y="258.8813">EventFetcher _eventFetcher</text><rect fill="none" height="3" style="stroke:#C82930;stroke-width:0.5;" width="3" x="762.5" y="262.0898"/><text fill="#000000" font-family="sans-serif" font-size="5.5" lengthAdjust="spacing" textLength="35.5" x="768.5" y="265.7993">dynamic _user</text><line style="stroke:#A80036;stroke-width:0.75;" x1="759" x2="859" y1="269.0078" y2="269.0078"/><ellipse cx="764" cy="274.5078" fill="#84BE84" rx="1.5" ry="1.5" style="stroke:#038048;stroke-width:0.5;"/><text fill="#000000" font-family="sans-serif" font-size="5.5" lengthAdjust="spacing" textLength="33" x="768.5" y="276.7173">Widget build()</text><ellipse cx="764" cy="281.4258" fill="#84BE84" rx="1.5" ry="1.5" style="stroke:#038048;stroke-width:0.5;"/><text fill="#000000" font-family="sans-serif" font-size="5.5" lengthAdjust="spacing" textLength="34.5" x="768.5" y="283.6353">void initState()</text><rect fill="#F24D5C" height="3" style="stroke:#C82930;stroke-width:0.5;" width="3" x="762.5" y="286.8438"/><text fill="#000000" font-family="sans-serif" font-size="5.5" lengthAdjust="spacing" textLength="70.5" x="768.5" y="290.5532">dynamic _handleSignInBuild()</text><rect fill="#F24D5C" height="3" style="stroke:#C82930;stroke-width:0.5;" width="3" x="762.5" y="293.7617"/><text fill="#000000" font-family="sans-serif" font-size="5.5" lengthAdjust="spacing" textLength="59" x="768.5" y="297.4712">dynamic _handleSignIn()</text><rect fill="#F24D5C" height="3" style="stroke:#C82930;stroke-width:0.5;" width="3" x="762.5" y="300.6797"/><text fill="#000000" font-family="sans-serif" font-size="5.5" lengthAdjust="spacing" textLength="59" x="768.5" y="304.3892">Future _handleSignOut()</text><rect fill="#F24D5C" height="3" style="stroke:#C82930;stroke-width:0.5;" width="3" x="762.5" y="307.5977"/><text fill="#000000" font-family="sans-serif" font-size="5.5" lengthAdjust="spacing" textLength="61.5" x="768.5" y="311.3071">void _handleListItemTap()</text><rect fill="#F24D5C" height="3" style="stroke:#C82930;stroke-width:0.5;" width="3" x="762.5" y="314.5156"/><text fill="#000000" font-family="sans-serif" font-size="5.5" lengthAdjust="spacing" textLength="71" x="768.5" y="318.2251">void _throwExceptionDialog()</text><!--MD5=[f0a3fc6d749a3c862372c6d746d77e56]
class calendar_importer::screens::importList.dart::_ImportListView--><rect codeLine="86" fill="#FEFECE" filter="url(#f17531z7fzgup3)" height="58.5898" id="calendar_importer::screens::importList.dart::_ImportListView" style="stroke:#A80036;stroke-width:0.75;" width="79.5" x="548.25" y="235.25"/><ellipse cx="564.525" cy="243.25" fill="#ADD1B2" rx="5.5" ry="5.5" style="stroke:#A80036;stroke-width:0.5;"/><path d="M565.525,241.5 Q565.6266,241.25 565.7438,241.125 Q565.8609,241 565.9938,241 Q566.2281,241 566.3766,241.1406 Q566.525,241.2813 566.525,241.6094 L566.525,242.3906 Q566.525,242.7188 566.3844,242.8594 Q566.2438,243 566.025,243 Q565.8297,243 565.7047,242.9141 Q565.5797,242.8281 565.525,242.6016 Q565.5016,242.4453 565.4156,242.3594 Q565.2594,242.1953 564.9781,242.1016 Q564.6969,242 564.4156,242 Q564.0641,242 563.7672,242.1406 Q563.4781,242.2813 563.2516,242.5938 Q563.025,242.9063 563.025,243.3359 L563.025,243.7969 Q563.025,244.3125 563.4469,244.6563 Q563.8688,245 564.6188,245 Q565.0641,245 565.3766,244.8984 Q565.5563,244.8438 565.7594,244.6641 Q565.8922,244.5625 565.9625,244.5313 Q566.0328,244.5 566.1188,244.5 Q566.2828,244.5 566.4,244.6328 Q566.525,244.7578 566.525,244.9375 Q566.525,245.1094 566.3531,245.3125 Q566.1031,245.6094 565.7047,245.7734 Q565.1813,246 564.5406,246 Q563.7906,246 563.1891,245.7031 Q562.7047,245.4688 562.3609,244.9609 Q562.025,244.4531 562.025,243.8516 L562.025,243.3047 Q562.025,242.6797 562.3219,242.1328 Q562.6266,241.5859 563.15,241.2969 Q563.6813,241 564.275,241 Q564.6344,241 564.9469,241.125 Q565.2594,241.25 565.525,241.5 Z " fill="#000000"/><text fill="#000000" font-family="sans-serif" font-size="6" lengthAdjust="spacing" textLength="44" x="573.475" y="245.7051">_ImportListView</text><line style="stroke:#A80036;stroke-width:0.75;" x1="548.75" x2="627.25" y1="251.25" y2="251.25"/><line style="stroke:#A80036;stroke-width:0.75;" x1="548.75" x2="627.25" y1="255.25" y2="255.25"/><ellipse cx="553.75" cy="260.75" fill="#84BE84" rx="1.5" ry="1.5" style="stroke:#038048;stroke-width:0.5;"/><text fill="#000000" font-family="sans-serif" font-size="5.5" lengthAdjust="spacing" textLength="33" x="558.25" y="262.9595">Widget build()</text><rect fill="#F24D5C" height="3" style="stroke:#C82930;stroke-width:0.5;" width="3" x="552.25" y="266.168"/><text fill="#000000" font-family="sans-serif" font-size="5.5" lengthAdjust="spacing" textLength="48.5" x="558.25" y="269.8774">Widget _buildBody()</text><rect fill="#F24D5C" height="3" style="stroke:#C82930;stroke-width:0.5;" width="3" x="552.25" y="273.0859"/><text fill="#000000" font-family="sans-serif" font-size="5.5" lengthAdjust="spacing" textLength="44.5" x="558.25" y="276.7954">Widget _buildList()</text><rect fill="#F24D5C" height="3" style="stroke:#C82930;stroke-width:0.5;" width="3" x="552.25" y="280.0039"/><text fill="#000000" font-family="sans-serif" font-size="5.5" lengthAdjust="spacing" textLength="66.5" x="558.25" y="283.7134">Widget _buildAccountIcon()</text><rect fill="#F24D5C" height="3" style="stroke:#C82930;stroke-width:0.5;" width="3" x="552.25" y="286.9219"/><text fill="#000000" font-family="sans-serif" font-size="5.5" lengthAdjust="spacing" textLength="59.5" x="558.25" y="290.6313">void _buildSimpleDialog()</text><!--MD5=[c8461bbba0c7219e4ced9433b3a27977]
class firebase_auth::firebase_auth.dart::FirebaseAuth--><rect fill="#FEFECE" filter="url(#f17531z7fzgup3)" height="24" id="firebase_auth::firebase_auth.dart::FirebaseAuth" style="stroke:#A80036;stroke-width:0.75;" width="52.5" x="810.25" y="363"/><ellipse cx="817.75" cy="371" fill="#ADD1B2" rx="5.5" ry="5.5" style="stroke:#A80036;stroke-width:0.5;"/><path d="M818.75,369.25 Q818.8516,369 818.9688,368.875 Q819.0859,368.75 819.2188,368.75 Q819.4531,368.75 819.6016,368.8906 Q819.75,369.0313 819.75,369.3594 L819.75,370.1406 Q819.75,370.4688 819.6094,370.6094 Q819.4688,370.75 819.25,370.75 Q819.0547,370.75 818.9297,370.6641 Q818.8047,370.5781 818.75,370.3516 Q818.7266,370.1953 818.6406,370.1094 Q818.4844,369.9453 818.2031,369.8516 Q817.9219,369.75 817.6406,369.75 Q817.2891,369.75 816.9922,369.8906 Q816.7031,370.0313 816.4766,370.3438 Q816.25,370.6563 816.25,371.0859 L816.25,371.5469 Q816.25,372.0625 816.6719,372.4063 Q817.0938,372.75 817.8438,372.75 Q818.2891,372.75 818.6016,372.6484 Q818.7813,372.5938 818.9844,372.4141 Q819.1172,372.3125 819.1875,372.2813 Q819.2578,372.25 819.3438,372.25 Q819.5078,372.25 819.625,372.3828 Q819.75,372.5078 819.75,372.6875 Q819.75,372.8594 819.5781,373.0625 Q819.3281,373.3594 818.9297,373.5234 Q818.4063,373.75 817.7656,373.75 Q817.0156,373.75 816.4141,373.4531 Q815.9297,373.2188 815.5859,372.7109 Q815.25,372.2031 815.25,371.6016 L815.25,371.0547 Q815.25,370.4297 815.5469,369.8828 Q815.8516,369.3359 816.375,369.0469 Q816.9063,368.75 817.5,368.75 Q817.8594,368.75 818.1719,368.875 Q818.4844,369 818.75,369.25 Z " fill="#000000"/><text fill="#000000" font-family="sans-serif" font-size="6" lengthAdjust="spacing" textLength="36.5" x="824.75" y="373.4551">FirebaseAuth</text><line style="stroke:#A80036;stroke-width:0.75;" x1="810.75" x2="862.25" y1="379" y2="379"/><line style="stroke:#A80036;stroke-width:0.75;" x1="810.75" x2="862.25" y1="383" y2="383"/><!--MD5=[4077d25b1bc0a3c639490d8c44f5feae]
class calendar_importer::support::widgetView.dart::WidgetView<T1, T2>--><rect codeLine="103" fill="#FEFECE" filter="url(#f17531z7fzgup3)" height="44.7539" id="calendar_importer::support::widgetView.dart::WidgetView&lt;T1, T2&gt;" style="stroke:#A80036;stroke-width:0.75;" width="72" x="454" y="124.5"/><ellipse cx="461.5" cy="132.5" fill="#A9DCDF" rx="5.5" ry="5.5" style="stroke:#A80036;stroke-width:0.5;"/><path d="M462.375,133.25 L460.7266,133.25 L460.5078,133.75 L460.5078,133.75 L460.7422,133.75 L461,134.0625 L461,134.25 L461,134.4375 L460.7422,134.75 L460.5078,134.75 L459.5625,134.75 L459.2578,134.75 L459,134.4375 L459,134.25 L459,134.0625 L459.2578,133.75 L459.5625,133.75 L460.7188,130.75 L460.2813,130.75 L459.7578,130.75 L459.5,130.4375 L459.5,130.25 L459.5,130.0625 L459.7578,129.75 L460.2813,129.75 L462.1172,129.75 L463.4609,133.75 L463.7422,133.75 L463.7422,133.75 L464,134.0625 L464,134.25 L464,134.4375 L463.7422,134.75 L463.4609,134.75 L462.5156,134.75 L462.2578,134.75 L462,134.4375 L462,134.25 L462,134.0625 L462.2578,133.75 L462.5156,133.75 L462.5156,133.75 L462.375,133.25 Z M462.1016,132.25 L461.5,130.4609 L460.9844,132.25 L462.1016,132.25 Z " fill="#000000"/><text fill="#000000" font-family="sans-serif" font-size="6" font-style="italic" lengthAdjust="spacing" textLength="56" x="468.5" y="134.9551">WidgetView&lt;T1, T2&gt;</text><line style="stroke:#A80036;stroke-width:0.75;" x1="454.5" x2="525.5" y1="140.5" y2="140.5"/><ellipse cx="459.5" cy="146" fill="none" rx="1.5" ry="1.5" style="stroke:#038048;stroke-width:0.5;"/><text fill="#000000" font-family="sans-serif" font-size="5.5" lengthAdjust="spacing" textLength="19.5" x="464" y="148.2095">T2 state</text><ellipse cx="459.5" cy="152.918" fill="none" rx="1.5" ry="1.5" style="stroke:#038048;stroke-width:0.5;"/><text fill="#000000" font-family="sans-serif" font-size="5.5" lengthAdjust="spacing" textLength="24" x="464" y="155.1274">T1 widget</text><line style="stroke:#A80036;stroke-width:0.75;" x1="454.5" x2="525.5" y1="158.3359" y2="158.3359"/><ellipse cx="459.5" cy="163.8359" fill="#84BE84" rx="1.5" ry="1.5" style="stroke:#038048;stroke-width:0.5;"/><text fill="#000000" font-family="sans-serif" font-size="5.5" lengthAdjust="spacing" textLength="33" x="464" y="166.0454">Widget build()</text><!--MD5=[578080c74720c8e3ad4787e8308a2f8e]
class calendar_importer::support::statelessView.dart::StatelessView<T1>--><rect codeLine="96" fill="#FEFECE" filter="url(#f17531z7fzgup3)" height="37.8359" id="calendar_importer::support::statelessView.dart::StatelessView&lt;T1&gt;" style="stroke:#A80036;stroke-width:0.75;" width="68" x="592" y="128"/><ellipse cx="599.5" cy="136" fill="#A9DCDF" rx="5.5" ry="5.5" style="stroke:#A80036;stroke-width:0.5;"/><path d="M600.375,136.75 L598.7266,136.75 L598.5078,137.25 L598.5078,137.25 L598.7422,137.25 L599,137.5625 L599,137.75 L599,137.9375 L598.7422,138.25 L598.5078,138.25 L597.5625,138.25 L597.2578,138.25 L597,137.9375 L597,137.75 L597,137.5625 L597.2578,137.25 L597.5625,137.25 L598.7188,134.25 L598.2813,134.25 L597.7578,134.25 L597.5,133.9375 L597.5,133.75 L597.5,133.5625 L597.7578,133.25 L598.2813,133.25 L600.1172,133.25 L601.4609,137.25 L601.7422,137.25 L601.7422,137.25 L602,137.5625 L602,137.75 L602,137.9375 L601.7422,138.25 L601.4609,138.25 L600.5156,138.25 L600.2578,138.25 L600,137.9375 L600,137.75 L600,137.5625 L600.2578,137.25 L600.5156,137.25 L600.5156,137.25 L600.375,136.75 Z M600.1016,135.75 L599.5,133.9609 L598.9844,135.75 L600.1016,135.75 Z " fill="#000000"/><text fill="#000000" font-family="sans-serif" font-size="6" font-style="italic" lengthAdjust="spacing" textLength="52" x="606.5" y="138.4551">StatelessView&lt;T1&gt;</text><line style="stroke:#A80036;stroke-width:0.75;" x1="592.5" x2="659.5" y1="144" y2="144"/><ellipse cx="597.5" cy="149.5" fill="none" rx="1.5" ry="1.5" style="stroke:#038048;stroke-width:0.5;"/><text fill="#000000" font-family="sans-serif" font-size="5.5" lengthAdjust="spacing" textLength="24" x="602" y="151.7095">T1 widget</text><line style="stroke:#A80036;stroke-width:0.75;" x1="592.5" x2="659.5" y1="154.918" y2="154.918"/><ellipse cx="597.5" cy="160.418" fill="#84BE84" rx="1.5" ry="1.5" style="stroke:#038048;stroke-width:0.5;"/><text fill="#000000" font-family="sans-serif" font-size="5.5" lengthAdjust="spacing" textLength="33" x="602" y="162.6274">Widget build()</text><!--MD5=[9ab8037b016fe110fdad50451bba99bb]
reverse link flutter::src::widgets::framework.dart::StatelessWidget to calendar_importer::hello.dart::Hello--><path codeLine="7" d="M308.77,56.245 C262.755,60.02 186.875,70.94 130,102.5 C117.205,109.6 105.79,121.7 97.94,131.42 " fill="none" id="flutter::src::widgets::framework.dart::StatelessWidget-backto-calendar_importer::hello.dart::Hello" style="stroke:#A80036;stroke-width:0.5;"/><polygon fill="none" points="308.585,52.75,318.815,55.495,309.105,59.73,308.585,52.75" style="stroke:#A80036;stroke-width:0.5;"/><!--MD5=[be0cf55cc33df242c4fbc42c97679aa6]
reverse link flutter::src::widgets::framework.dart::StatelessWidget to calendar_importer::main.dart::MyApp--><path codeLine="13" d="M308.91,59.49 C275.31,65.44 227.64,77.74 193,102.5 C182.55,109.97 174.17,121.92 168.615,131.485 " fill="none" id="flutter::src::widgets::framework.dart::StatelessWidget-backto-calendar_importer::main.dart::MyApp" style="stroke:#A80036;stroke-width:0.5;"/><polygon fill="none" points="308.415,56.025,318.855,57.84,309.56,62.93,308.415,56.025" style="stroke:#A80036;stroke-width:0.5;"/><!--MD5=[db9dbe3f4733d7758d5d168ede7dda2c]
reverse link flutter::src::widgets::framework.dart::StatefulWidget to calendar_importer::main.dart::MyHomePage--><path codeLine="20" d="M414.12,74.295 C407.825,83.37 399.115,93.225 388.5,98.5 C371.865,106.765 322.405,96.01 305,102.5 C290.52,107.9 276.83,118.515 266.61,127.97 " fill="none" id="flutter::src::widgets::framework.dart::StatefulWidget-backto-calendar_importer::main.dart::MyHomePage" style="stroke:#A80036;stroke-width:0.5;"/><polygon fill="none" points="411.175,72.405,419.495,65.845,417.08,76.16,411.175,72.405" style="stroke:#A80036;stroke-width:0.5;"/><!--MD5=[be3664211ee5886c9dd7c88922d091bb]
reverse link flutter::src::widgets::framework.dart::State<T> to calendar_importer::main.dart::_MyHomePageState--><path codeLine="28" d="M481.74,74.87 C476.97,83.345 470.375,92.545 462,98.5 C456.025,102.745 452.91,100.06 446,102.5 C426.46,109.4 405.485,118.875 388.225,127.27 " fill="none" id="flutter::src::widgets::framework.dart::State&lt;T&gt;-backto-calendar_importer::main.dart::_MyHomePageState" style="stroke:#A80036;stroke-width:0.5;"/><polygon fill="none" points="478.69,73.145,486.35,65.825,484.93,76.325,478.69,73.145" style="stroke:#A80036;stroke-width:0.5;"/><!--MD5=[a185b59b80bb6828aeb63736315ff518]
reverse link calendar_importer::models::currentUser.dart::CurrentUser to google_sign_in::google_sign_in.dart::GoogleSignInAccount--><path codeLine="39" d="M466.885,286.32 C475.35,309.21 488.49,344.73 495.215,362.915 " fill="none" id="calendar_importer::models::currentUser.dart::CurrentUser-backto-google_sign_in::google_sign_in.dart::GoogleSignInAccount" style="stroke:#A80036;stroke-width:0.5;"/><polygon fill="#FFFFFF" points="464.63,280.225,463.7918,283.7318,466.7064,285.8543,467.5446,282.3475,464.63,280.225" style="stroke:#A80036;stroke-width:0.5;"/><!--MD5=[c4f47568e8644deacc52b1f9c8daf40b]
reverse link flutter::src::widgets::framework.dart::StatefulWidget to calendar_importer::screens::importList.dart::ImportList--><path codeLine="63" d="M436.7,74.56 C442.875,83.625 451.44,93.395 462,98.5 C472.305,103.48 659.38,94.965 668,102.5 C709.015,138.35 702.57,211.27 696.785,245.49 " fill="none" id="flutter::src::widgets::framework.dart::StatefulWidget-backto-calendar_importer::screens::importList.dart::ImportList" style="stroke:#A80036;stroke-width:0.5;"/><polygon fill="none" points="433.645,76.275,431.34,65.93,439.59,72.58,433.645,76.275" style="stroke:#A80036;stroke-width:0.5;"/><!--MD5=[1f008a9377fba385e8a6d16f0e3a1a82]
reverse link calendar_importer::screens::importList.dart::_ImportListController to google_sign_in::google_sign_in.dart::GoogleSignInAccount--><path codeLine="81" d="M761.485,325.755 C757.665,328.67 753.665,331.295 749.5,333.5 C736.25,340.52 730.84,335.345 716,337.5 C653.075,346.63 580.265,359.565 537.15,367.475 " fill="none" id="calendar_importer::screens::importList.dart::_ImportListController-backto-google_sign_in::google_sign_in.dart::GoogleSignInAccount" style="stroke:#A80036;stroke-width:0.5;"/><polygon fill="#FFFFFF" points="766.585,321.605,762.9959,321.9488,761.9328,325.394,765.5219,325.0503,766.585,321.605" style="stroke:#A80036;stroke-width:0.5;"/><!--MD5=[3592eac574432dbcf2b905b868ed9220]
reverse link calendar_importer::screens::importList.dart::_ImportListController to firebase_auth::firebase_auth.dart::FirebaseAuth--><path codeLine="82" d="M824.805,327.925 C828.17,341.34 831.375,354.085 833.57,362.84 " fill="none" id="calendar_importer::screens::importList.dart::_ImportListController-backto-firebase_auth::firebase_auth.dart::FirebaseAuth" style="stroke:#A80036;stroke-width:0.5;"/><polygon fill="#FFFFFF" points="823.195,321.515,821.9868,324.9121,824.658,327.3339,825.8661,323.9368,823.195,321.515" style="stroke:#A80036;stroke-width:0.5;"/><!--MD5=[ca6e589b83f90f4be8316c0f3504c9d1]
reverse link calendar_importer::screens::importList.dart::_ImportListController to calendar_importer::models::EventFetcher.dart::EventFetcher--><path codeLine="83" d="M777.085,327.405 C770.975,339.35 765.12,350.8 760.715,359.415 " fill="none" id="calendar_importer::screens::importList.dart::_ImportListController-backto-calendar_importer::models::EventFetcher.dart::EventFetcher" style="stroke:#A80036;stroke-width:0.5;"/><polygon fill="#FFFFFF" points="780.1,321.515,776.9538,323.2761,777.3693,326.8576,780.5155,325.0965,780.1,321.515" style="stroke:#A80036;stroke-width:0.5;"/><!--MD5=[2aabab1b0d0a6cc911a4fbd53332116c]
reverse link flutter::src::widgets::framework.dart::State<T> to calendar_importer::screens::importList.dart::_ImportListController--><path codeLine="84" d="M517.605,70.97 C535.055,80.98 558.775,92.825 581.5,98.5 C594.015,101.625 686.185,96.31 697.5,102.5 C738.9,125.145 768.14,170.56 786.26,207.475 " fill="none" id="flutter::src::widgets::framework.dart::State&lt;T&gt;-backto-calendar_importer::screens::importList.dart::_ImportListController" style="stroke:#A80036;stroke-width:0.5;"/><polygon fill="none" points="515.68,73.895,508.845,65.795,519.235,67.865,515.68,73.895" style="stroke:#A80036;stroke-width:0.5;"/><!--MD5=[e480bb38526948f25a69d7a58613a5a1]
reverse link calendar_importer::support::widgetView.dart::WidgetView<T1, T2> to calendar_importer::screens::importList.dart::_ImportListView--><path codeLine="94" d="M520.065,176.805 C522.8,179.695 525.48,182.625 528,185.5 C541.84,201.31 556.175,219.965 567.36,235.12 " fill="none" id="calendar_importer::support::widgetView.dart::WidgetView&lt;T1, T2&gt;-backto-calendar_importer::screens::importList.dart::_ImportListView" style="stroke:#A80036;stroke-width:0.5;"/><polygon fill="none" points="517.46,179.145,513.015,169.53,522.485,174.275,517.46,179.145" style="stroke:#A80036;stroke-width:0.5;"/><!--MD5=[c3ec894b2779e2dc5232b3606574f4c5]
reverse link flutter::src::widgets::framework.dart::StatelessWidget to calendar_importer::support::statelessView.dart::StatelessView<T1>--><path codeLine="101" d="M361.785,74.275 C368.575,83.415 377.89,93.34 389,98.5 C403.615,105.29 518.335,98.72 534,102.5 C555.6,107.715 578.13,118.39 595.49,127.92 " fill="none" id="flutter::src::widgets::framework.dart::StatelessWidget-backto-calendar_importer::support::statelessView.dart::StatelessView&lt;T1&gt;" style="stroke:#A80036;stroke-width:0.5;"/><polygon fill="none" points="358.835,76.16,356.075,65.93,364.61,72.205,358.835,76.16" style="stroke:#A80036;stroke-width:0.5;"/><!--MD5=[52e789115a089b193d0ba6344536d6f2]
reverse link flutter::src::widgets::framework.dart::StatelessWidget to calendar_importer::support::widgetView.dart::WidgetView<T1, T2>--><path codeLine="109" d="M363.94,73.66 C370.86,82.045 379.665,91.51 389,98.5 C391.915,100.68 426.09,116.785 453.89,129.75 " fill="none" id="flutter::src::widgets::framework.dart::StatelessWidget-backto-calendar_importer::support::widgetView.dart::WidgetView&lt;T1, T2&gt;" style="stroke:#A80036;stroke-width:0.5;"/><polygon fill="none" points="361.16,75.785,357.705,65.77,366.65,71.445,361.16,75.785" style="stroke:#A80036;stroke-width:0.5;"/><!--MD5=[3ae49246bc1b8445b40ecc2efc69b528]
@startuml
set namespaceSeparator ::

class "calendar_importer::hello.dart::Hello" {
  +Widget build()
}

"flutter::src::widgets::framework.dart::StatelessWidget" <|- - "calendar_importer::hello.dart::Hello"

class "calendar_importer::main.dart::MyApp" {
  +Widget build()
}

"flutter::src::widgets::framework.dart::StatelessWidget" <|- - "calendar_importer::main.dart::MyApp"

class "calendar_importer::main.dart::MyHomePage" {
  +dynamic title
  +_MyHomePageState createState()
}

"flutter::src::widgets::framework.dart::StatefulWidget" <|- - "calendar_importer::main.dart::MyHomePage"

class "calendar_importer::main.dart::_MyHomePageState" {
  -int _counter
  -void _incrementCounter()
  +Widget build()
}

"flutter::src::widgets::framework.dart::State<T>" <|- - "calendar_importer::main.dart::_MyHomePageState"

class "calendar_importer::models::calendarSource.dart::CalendarSource" {
  +String url
  +String name
}

class "calendar_importer::models::currentUser.dart::CurrentUser" {
  {static} +GoogleSignInAccount currentGoogleAccount
}

"calendar_importer::models::currentUser.dart::CurrentUser" o- - "google_sign_in::google_sign_in.dart::GoogleSignInAccount"

class "calendar_importer::models::EventFetcher.dart::EventFetcher" {
  +void fetchEvents()
}

class "calendar_importer::models::eventImporter.dart::EventImporter" {
  {static} +void importEvent()
}

class "calendar_importer::models::remoteEventModel.dart::RemoteEventModel" {
  +String title
  +String description
  +DateTime eventDate
  +String user
  +Map toMap()
  +String toString()
}

class "calendar_importer::screens::importList.dart::ImportList" {
  +dynamic calendarId
  +_ImportListController createState()
}

"flutter::src::widgets::framework.dart::StatefulWidget" <|- - "calendar_importer::screens::importList.dart::ImportList"

class "calendar_importer::screens::importList.dart::_ImportListController" {
  +dynamic calendarId
  +List<CalendarSource> listOfSources
  -GoogleSignInAccount _currentUser
  -FirebaseAuth _firebaseAuth
  -EventFetcher _eventFetcher
  -dynamic _user
  +Widget build()
  +void initState()
  -dynamic _handleSignInBuild()
  -dynamic _handleSignIn()
  -Future _handleSignOut()
  -void _handleListItemTap()
  -void _throwExceptionDialog()
}

"calendar_importer::screens::importList.dart::_ImportListController" o- - "google_sign_in::google_sign_in.dart::GoogleSignInAccount"
"calendar_importer::screens::importList.dart::_ImportListController" o- - "firebase_auth::firebase_auth.dart::FirebaseAuth"
"calendar_importer::screens::importList.dart::_ImportListController" o- - "calendar_importer::models::EventFetcher.dart::EventFetcher"
"flutter::src::widgets::framework.dart::State<T>" <|- - "calendar_importer::screens::importList.dart::_ImportListController"

class "calendar_importer::screens::importList.dart::_ImportListView" {
  +Widget build()
  -Widget _buildBody()
  -Widget _buildList()
  -Widget _buildAccountIcon()
  -void _buildSimpleDialog()
}

"calendar_importer::support::widgetView.dart::WidgetView<T1, T2>" <|- - "calendar_importer::screens::importList.dart::_ImportListView"

abstract class "calendar_importer::support::statelessView.dart::StatelessView<T1>" {
  +T1 widget
  +Widget build()
}

"flutter::src::widgets::framework.dart::StatelessWidget" <|- - "calendar_importer::support::statelessView.dart::StatelessView<T1>"

abstract class "calendar_importer::support::widgetView.dart::WidgetView<T1, T2>" {
  +T2 state
  +T1 widget
  +Widget build()
}

"flutter::src::widgets::framework.dart::StatelessWidget" <|- - "calendar_importer::support::widgetView.dart::WidgetView<T1, T2>"


@enduml

PlantUML version 1.2021.00(Sun Jan 10 11:25:05 CET 2021)
(GPL source distribution)
Java Runtime: OpenJDK Runtime Environment
JVM: OpenJDK 64-Bit Server VM
Default Encoding: Cp1252
Language: en
Country: US
--></g></svg>